<svg xmlns="http://www.w3.org/2000/svg" viewBox="4771.8 1146.675 54.1 62.017"><defs><style>.a{fill:url(#a)}</style><linearGradient id="a" x1="1.099" y1=".213" x2=".5" y2="1" gradientUnits="objectBoundingBox"><stop offset="0" stop-color="#009fe3"/><stop offset=".539" stop-color="#1b5cae"/><stop offset="1" stop-color="#312783"/></linearGradient></defs><path class="a" d="M4808.912 1193.353h-8.082a.99.99 0 0 0-.99.99v8.082a.99.99 0 0 0 .99.99h8.082a.99.99 0 0 0 .99-.99v-8.082a.99.99 0 0 0-.99-.99zm-.99 8.082h-6.1v-6.1h6.1zM4796.871 1193.353h-8.082a.99.99 0 0 0-.99.99v8.082a.99.99 0 0 0 .99.99h8.082a.99.99 0 0 0 .99-.99v-8.082a.99.99 0 0 0-.99-.99zm-.99 8.082h-6.1v-6.1h6.1zM4796.871 1181.312h-8.082a.99.99 0 0 0-.99.99v8.082a.99.99 0 0 0 .99.99h8.082a.99.99 0 0 0 .99-.99v-8.082a.99.99 0 0 0-.99-.99zm-.99 8.082h-6.1v-6.1h6.1zM4784.831 1193.353h-8.082a.99.99 0 0 0-.99.99v8.082a.99.99 0 0 0 .99.99h8.082a.99.99 0 0 0 .99-.99v-8.082a.99.99 0 0 0-.99-.99zm-.99 8.082h-6.1v-6.1h6.1zM4820.952 1173.395h-8.082a.99.99 0 0 0-.99.99v3.959a.99.99 0 0 0 .99.99h8.082a.99.99 0 0 0 .99-.99v-3.959a.99.99 0 0 0-.99-.99zm-.99 3.959h-6.1v-1.979h6.1zM4808.912 1181.312h-8.082a.99.99 0 0 0-.99.99v8.082a.99.99 0 0 0 .99.99h8.082a.99.99 0 0 0 .99-.99v-8.082a.99.99 0 0 0-.99-.99zm-.99 8.082h-6.1v-6.1h6.1zM4784.831 1181.312h-8.082a.99.99 0 0 0-.99.99v8.082a.99.99 0 0 0 .99.99h8.082a.99.99 0 0 0 .99-.99v-8.082a.99.99 0 0 0-.99-.99zm-.99 8.082h-6.1v-6.1h6.1zM4808.912 1173.395h-8.082a.99.99 0 0 0-.99.99v3.959a.99.99 0 0 0 .99.99h8.082a.99.99 0 0 0 .99-.99v-3.959a.99.99 0 0 0-.99-.99zm-.99 3.959h-6.1v-1.979h6.1z"/><path class="a" d="M4820.952 1146.675h-44.2a4.954 4.954 0 0 0-4.952 4.948v52.121a4.954 4.954 0 0 0 4.948 4.948h44.2a4.954 4.954 0 0 0 4.952-4.948v-52.121a4.954 4.954 0 0 0-4.948-4.948zm2.969 57.069a2.972 2.972 0 0 1-2.969 2.969h-44.2a2.972 2.972 0 0 1-2.969-2.969v-52.121a2.972 2.972 0 0 1 2.969-2.969h44.2a2.972 2.972 0 0 1 2.969 2.969z"/><path class="a" d="M4820.952 1181.312h-8.082a.99.99 0 0 0-.99.99v20.123a.99.99 0 0 0 .99.99h8.082a.99.99 0 0 0 .99-.99v-12.206a.99.99 0 0 0-1.979 0v11.216h-6.1v-18.144h6.1v2.969a.99.99 0 1 0 1.979 0v-3.958a.99.99 0 0 0-.99-.99zM4820.952 1151.953h-44.203a.99.99 0 0 0-.99.99v16.164a.99.99 0 0 0 .99.99h8.082a.99.99 0 1 0 0-1.979h-7.093v-14.186h42.221v14.185h-31.17a.99.99 0 1 0 0 1.979h32.163a.99.99 0 0 0 .99-.99v-16.163a.99.99 0 0 0-.99-.99z"/><path class="a" d="M4813.035 1157.891h3.959a.99.99 0 0 0 0-1.979h-3.959a.99.99 0 0 0 0 1.979zM4813.035 1165.808h3.959a.99.99 0 0 0 0-1.979h-3.959a.99.99 0 0 0 0 1.979zM4812.045 1162.18a.99.99 0 1 0 1.979 0v-2.639a.99.99 0 0 0-1.979 0z"/></svg>