<svg xmlns="http://www.w3.org/2000/svg" viewBox="5369 1420 79.822 35.366"><defs><style>.a{fill:url(#a)}</style><linearGradient id="a" x1=".785" y1=".196" x2=".2" y2="1.153" gradientUnits="objectBoundingBox"><stop offset="0" stop-color="#009fe3"/><stop offset="1" stop-color="#312783"/></linearGradient></defs><path class="a" d="M5386.294 1442.487a6.443 6.443 0 1 1-6.652 6.439 6.556 6.556 0 0 1 6.652-6.439zm0 10.3a3.866 3.866 0 1 0-3.991-3.864 3.934 3.934 0 0 0 3.991 3.867zM5431.527 1442.487a6.443 6.443 0 1 1-6.652 6.439 6.556 6.556 0 0 1 6.652-6.439zm0 10.3a3.866 3.866 0 1 0-3.991-3.864 3.934 3.934 0 0 0 3.991 3.867z"/><path class="a" d="M5370.33 1442.487v-7.727a1.291 1.291 0 0 1 .91-1.222l7.507-2.422c2.827-4.635 6.713-9.046 15.3-10.5l.048-.008c15.858-2.122 27.765 1.341 35.409 10.3 8.838.124 17.987 2.822 17.987 7.722v3.864a1.31 1.31 0 0 1 1.33 1.288v5.151a1.31 1.31 0 0 1-1.33 1.288h-5.32a1.31 1.31 0 0 1-1.33-1.288 9.318 9.318 0 0 0-18.625 0 1.31 1.31 0 0 1-1.33 1.288h-23.948a1.31 1.31 0 0 1-1.33-1.288 9.178 9.178 0 0 0-9.313-9.015 9.178 9.178 0 0 0-9.313 9.015 1.31 1.31 0 0 1-1.33 1.288h-5.322a1.31 1.31 0 0 1-1.33-1.294v-5.151a1.309 1.309 0 0 1 1.33-1.289zm17.23-16.928a17.612 17.612 0 0 0-5.526 5.337h5.578zm16.03-2.984a62.472 62.472 0 0 0-9.107.58 22.676 22.676 0 0 0-4.276 1.142l.065 6.6h13.317zm2.661.11v8.213h19.66c-4.932-4.925-11.435-7.646-19.661-8.213zm-34.591 24.954h2.734a11.856 11.856 0 0 1 11.9-10.3 11.856 11.856 0 0 1 11.9 10.3h21.433a12.024 12.024 0 0 1 23.8 0h2.734v-2.572a1.31 1.31 0 0 1-1.33-1.288v-3.864h-1.331a1.288 1.288 0 1 1 0-2.576h.689c-1.8-1.892-7.306-3.864-15.323-3.864h-49.007l-6.869 2.216v1.647h1.33a1.288 1.288 0 1 1 0 2.576h-1.329v3.864a1.31 1.31 0 0 1-1.331 1.289z"/></svg>