<svg xmlns="http://www.w3.org/2000/svg" viewBox="4773 1408 52.441 60"><defs><style>.a{fill:url(#a)}</style><linearGradient id="a" x1="1" x2="0" y2="1" gradientUnits="objectBoundingBox"><stop offset="0" stop-color="#009fe3"/><stop offset="1" stop-color="#312783"/></linearGradient></defs><path class="a" d="M4802.616 1436.134a5.519 5.519 0 0 0 2.132-4.356v-4a5.527 5.527 0 0 0-11.053 0v4a5.519 5.519 0 0 0 2.132 4.356 10.53 10.53 0 0 0-7.208 9.682v3.118a.881.881 0 0 0 .881.881h19.443a.881.881 0 0 0 .881-.881v-3.121a10.53 10.53 0 0 0-7.208-9.679zm-6.864-9.819a3.766 3.766 0 0 1 7.235 1.464v.975a3.7 3.7 0 0 1-2.048-2.03.881.881 0 0 0-1.6-.106 5.1 5.1 0 0 1-3.885 2.229v-1.068a3.739 3.739 0 0 1 .298-1.464zm-.3 5.462v-1.16a7.264 7.264 0 0 0 4.538-2.028 4.858 4.858 0 0 0 2.994 1.983v1.205a3.77 3.77 0 0 1-3.606 3.762H4799.06a3.77 3.77 0 0 1-3.604-3.762zm3.35 8.27h.83l1.021 4.434-1.437 1.315-1.437-1.315zm-.631-2.669c.067-.009.135-.02.2-.028.131-.015.263-.026.394-.035h.062c.088-.005.177-.008.266-.011h.24c.088 0 .177.005.266.011h.062a8.6 8.6 0 0 1 .394.035c.068.008.135.019.2.028l-.467.908h-1.158zm9.888 10.678h-17.679v-2.241a8.207 8.207 0 0 1 2.663-5.959 9.418 9.418 0 0 1 3.37-2.052l.762 1.48-1.222 5.3a.881.881 0 0 0 .264.847l2.41 2.206a.88.88 0 0 0 1.189 0l2.41-2.206a.88.88 0 0 0 .264-.847l-1.222-5.3.761-1.479a9.421 9.421 0 0 1 3.37 2.052 8.206 8.206 0 0 1 2.663 5.959v2.241z"/><path class="a" d="M4819.92 1421.211a.881.881 0 0 0-.87-.744c-8.278 0-19.266-6.54-19.376-6.606a.881.881 0 0 0-.907 0c-.11.066-11.089 6.606-19.375 6.606a.881.881 0 0 0-.87.744 46.5 46.5 0 0 0-.415 6.657.88.88 0 0 0 .88.879.88.88 0 0 0 .879-.882 49.986 49.986 0 0 1 .3-5.654 37.016 37.016 0 0 0 12.726-3.421 66.313 66.313 0 0 0 6.329-3.154 66.327 66.327 0 0 0 6.329 3.154 37.019 37.019 0 0 0 12.724 3.422 52.088 52.088 0 0 1-.829 16.332.881.881 0 1 0 1.719.383 52.449 52.449 0 0 0 .756-17.716zM4817.806 1440.779a.881.881 0 0 0-1.1.59 29.737 29.737 0 0 1-6.652 11.97 26.4 26.4 0 0 1-10.836 6.865 26 26 0 0 1-14.965-12.658 39.791 39.791 0 0 1-4.276-16.369.881.881 0 1 0-1.758.111 41.526 41.526 0 0 0 4.488 17.089 27.744 27.744 0 0 0 16.24 13.592.879.879 0 0 0 .555 0 28.217 28.217 0 0 0 11.842-7.424 31.474 31.474 0 0 0 7.055-12.669.88.88 0 0 0-.593-1.097z"/><path class="a" d="M4824.916 1417.171a.881.881 0 0 0-.87-.744c-10.427 0-24.234-8.219-24.372-8.3a.881.881 0 0 0-.907 0c-.138.083-13.945 8.3-24.372 8.3a.881.881 0 0 0-.87.744 65.519 65.519 0 0 0 .784 21.354 43.4 43.4 0 0 0 7.231 16.98 34.608 34.608 0 0 0 17.4 12.449.88.88 0 0 0 .555 0 34.607 34.607 0 0 0 17.4-12.449 43.4 43.4 0 0 0 7.231-16.98 65.5 65.5 0 0 0 .79-21.354zm-2.507 20.995a41.656 41.656 0 0 1-6.927 16.3 32.824 32.824 0 0 1-16.261 11.724 32.829 32.829 0 0 1-16.244-11.7 41.613 41.613 0 0 1-6.933-16.271 65.736 65.736 0 0 1-.874-20.04c4.456-.151 9.846-1.586 16.039-4.274a82.424 82.424 0 0 0 8.013-4 82.388 82.388 0 0 0 8.012 4c6.193 2.687 11.584 4.123 16.04 4.274a65.646 65.646 0 0 1-.865 19.987z"/></svg>