<svg xmlns="http://www.w3.org/2000/svg" viewBox="4035 315 50 50"><defs><style>.cls-1{fill:rgba(238,28,28,0);stroke-width:2px;opacity:.502}.cls-1,.cls-2{stroke:#000;fill-rule:evenodd}</style></defs><g id="Group_127" data-name="Group 127" transform="translate(4031 311)"><path id="Path_1" data-name="Path 1" class="cls-1" d="M29 5A24 24 0 1 1 5 29 24 24 0 0 1 29 5z"/><path id="Path_2" data-name="Path 2" class="cls-2" d="M41.045 30.13l-21 .043 6.555 6.6a1.026 1.026 0 0 1 .076 1.44 1.014 1.014 0 0 1-1.433-.076l-8.33-8.386a1.028 1.028 0 0 1-.075-1.441l8.48-8.544a1.015 1.015 0 0 1 1.434.076 1.026 1.026 0 0 1 .075 1.44l-6.7 6.752 20.921-.042a1.013 1.013 0 0 1 .96 1.066 1.025 1.025 0 0 1-.963 1.072z"/></g></svg>