<svg xmlns="http://www.w3.org/2000/svg" viewBox="4355 6 198.1 43.677"><defs><style>.a,.b{fill:#f2f2f2;fill-rule:evenodd}.b{fill:url(#a)}</style><radialGradient id="a" cx="40.696" cy="-7.43" r="46.271" gradientUnits="userSpaceOnUse"><stop offset="0" stop-color="#009fe3"/><stop offset="1" stop-color="#312783"/></radialGradient></defs><path class="a" d="M4407.287 43.461v-4.2h7.307v2.435c0 1.218-.588 1.806-1.722 1.764zm-2.772.294v-7.391a8.415 8.415 0 0 1-1.092.42v-1.176a4.832 4.832 0 0 0 1.806-3.4h1.806a9.379 9.379 0 0 1-.8 2.394v9.155h-1.722zm2.352-9.449h8.273v-1.26h-3.15v-.84h-2.057v.84h-3.066v1.26zm.462 1.974v-1.176h7.223v1.176zm0 2.058v-1.176h7.223v1.176zm1.722 3.948h3.192c.42.042.588-.168.588-.672v-1.093h-3.78v1.764zm11.465-4.79v-1.26h2.814a5.948 5.948 0 0 0 .336-.756h1.932l-.294.756h3.654v1.26h-4.41a6.422 6.422 0 0 1-1.092 1.3h4.83v2.814c.042 1.26-.5 1.848-1.68 1.764h-5v-3.315a1.5 1.5 0 0 1-.462.252c-.378.21-.63.336-.8.42v-1.218a7.643 7.643 0 0 0 2.268-2.016h-2.1zm5.25-2.1v-1.132h-2.058v1.132h-1.722v-1.132h-1.428v-1.218h1.428v-.966h1.722v.966h2.058v-.966h1.722v.966h1.428v1.218h-1.428v1.132zm-7.685 8.273a15.774 15.774 0 0 0 2.772-1.428v-1.384a11.216 11.216 0 0 1-1.008.5v-5.661h-2.688v1.218h.924v6.762zm5.376-1.344h2.436a.631.631 0 0 0 .672-.714v-1.68h-3.108v2.394zm-5-7.517a13.987 13.987 0 0 0-.84-2.562h1.638a7.907 7.907 0 0 1 .84 2.562zm16.295-.084v-1.216h2.73v-1.386h1.89v1.386h2.9v1.218h-2.9v2.646h3.4v1.218h-4.239a8.718 8.718 0 0 1-2.058 3.276c1.428 0 2.73-.042 3.99-.168a15.241 15.241 0 0 0-.672-1.932h1.554a16.491 16.491 0 0 1 1.218 3.78h-1.68l-.084-.714a44.426 44.426 0 0 1-6.048.336v-1.387a9.462 9.462 0 0 0 1.722-3.276h-2.184v-1.217h3.232v-2.646h-2.77zm-3.7 8.819a14.363 14.363 0 0 0 1.26-5.124h1.638a15.421 15.421 0 0 1-1.008 5.124zm1.176-5.67a11.227 11.227 0 0 0-.8-2.478h1.68a9.1 9.1 0 0 1 .84 2.478zm-.168-3.024a10.7 10.7 0 0 0-.756-2.478h1.638a9.1 9.1 0 0 1 .84 2.478zm12.814 4.247v-1.094a4.146 4.146 0 0 0 2.016-2.646h1.512v-.5h2.688v-.84h-2.142v-1.18h2.142v-.714h1.89v.714h2.94v2.016h.756v1.176h-.753v.42c.042 1.134-.546 1.68-1.764 1.68h-1.176v.924h3.066v1.176h-3.066v.968h3.57v1.176h-3.57v1.424h-1.89v-1.511h-3.07v-1.176h3.066v-.966h-2.566v-1.175h2.562v-.924h-2.31v-1.218h2.31v-.84h-2.688a4.219 4.219 0 0 1-.714 1.3v6.426h-1.76v-5.04a2.643 2.643 0 0 1-.714.252 2.477 2.477 0 0 1-.336.168zm0-3.234a4.865 4.865 0 0 0 3.822-3.7h-1.806a4.346 4.346 0 0 1-2.016 2.688v1.008zm9.323-1.848h-1.26v.84h1.26v-.84zm-.714 2.856c.5.042.756-.168.714-.672v-.21h-1.26v.84h.546zm12.557 6.8v-1.174h.8c.42 0 .672-.21.672-.588v-6.846h-.042c-.168 3.318-1.218 5.754-3.15 7.223v-1.47a12.568 12.568 0 0 0 1.428-5.754h-1.176v-1.217h2.94v-1.68h1.764v1.68h1.092v1.218h-1.092v6.888a1.5 1.5 0 0 1-1.68 1.722zm-7.055-3.318v-7.726h5.208v7.727h-1.3v-6.51h-2.52v6.51zm-.336 3.444a5.488 5.488 0 0 0 2.982-2.226 6.519 6.519 0 0 0 2.94 2.226v-1.175a4.489 4.489 0 0 1-2.226-4.284v-3.863h-1.428v3.864a4.369 4.369 0 0 1-2.268 4.284v1.174zm25.45-6.8a15.879 15.879 0 0 1-2.52-.924v1.05h-6.762v-1.01a21.247 21.247 0 0 1-2.478.84v-1.134a9.853 9.853 0 0 0 4.872-3.822h2.142a9.373 9.373 0 0 0 4.788 3.822v1.178zm-11.465 2.562v-1.22h11.213v1.218h-6.048a7.1 7.1 0 0 1-2.016 2.31 30.922 30.922 0 0 0 4.956-.168 5.941 5.941 0 0 0-.588-1.3h1.638a8.979 8.979 0 0 1 1.3 3.15h-1.766a1.182 1.182 0 0 0-.042-.336 1.3 1.3 0 0 1-.084-.336 48.527 48.527 0 0 1-6.258.336h-1.05v-1.3a7.7 7.7 0 0 0 1.764-2.31h-3.024zm5.628-5.754a10.437 10.437 0 0 1-2.94 2.058h5.88a9.825 9.825 0 0 1-2.94-2.058zm9.113 9.7v-4.578h9.323v2.77a1.541 1.541 0 0 1-1.764 1.806zm1.722-4.914v-1.05q3.465-.63 3.276-2.646v-.42h1.932v.5c0 1.344 1.134 2.226 3.4 2.562v1.092a6.544 6.544 0 0 1-4.284-1.68 6.763 6.763 0 0 1-4.326 1.638zm6.678-3.276h1.722v-2.436h-5.124a.791.791 0 0 0 .084-.336.722.722 0 0 0 .084-.336h-1.89a2.946 2.946 0 0 1-1.512 2.226v.964a4.323 4.323 0 0 0 2.52-1.344h4.032v1.26zm-6.51 6.972h4.872c.5 0 .756-.21.714-.672v-1.429h-5.586v2.1zm-3.15-3.78a9.368 9.368 0 0 0 1.26-3.318h1.554a8.206 8.206 0 0 1-.966 3.318zm1.092-4.2a6.86 6.86 0 0 0-.8-2.142h1.68a8.43 8.43 0 0 1 .924 2.142zm16 1.68v-1.008a4.543 4.543 0 0 0 1.68-2.73h1.806c-.084.378-.21.714-.294 1.008h4.956v8.483a1.612 1.612 0 0 1-1.806 1.89h-1.512v-1.133h.924c.42.042.672-.21.672-.756v-7.308h-3.822a5.235 5.235 0 0 1-1.47 1.134h4.41v4.872c.084 1.176-.462 1.722-1.554 1.68h-3.192v-6.384c-.084.042-.21.084-.42.168a.71.71 0 0 0-.378.084zm-2.31 7.517a9.479 9.479 0 0 0 2.73-1.554v-1.47a4.963 4.963 0 0 1-.966.588v-5.371h-2.688v1.26h.924v6.552zm.378-8.735a7.756 7.756 0 0 0-.84-2.52h1.638a8.769 8.769 0 0 1 .966 2.52zm4.2 6.09h1.134c.42 0 .588-.168.546-.546v-1.009h-1.68v1.554zm0-4.116v1.428h1.68v-1.428zm8.315-2.982v-1.05h4.872v-.588h1.974v.588h4.872v1.05h-4.872v.5h3.738v1.05c.042 1.008-.462 1.512-1.512 1.47h-2.226v.546h3.948v1.68h.924v1.008h-.924v.042c.042 1.218-.5 1.764-1.638 1.722h-2.31v.084a1.559 1.559 0 0 1-1.764 1.764h-1.68v-1.089h.84c.42.042.63-.168.588-.546v-.21h-4.284v-1.008h4.287v-.756h-4.872V39.01h4.914v-.672h-4.2V37.33h4.2v-.546h-3.742v-2.52h3.738v-.5zm8.441 7.014a.588.588 0 0 0 .672-.63v-.126h-2.268v.756zm.672-2.436h-2.268v.672h2.268v-.672zm-6.258-2.478h2.016v-.714h-2.016v.714zm6.006-.672h-2.016v.714h1.554c.336.042.5-.126.462-.5v-.21zm16.59 3.108a34.659 34.659 0 0 1-5.754-1.008 29.548 29.548 0 0 1-5.88 1.05v-1.05a22.893 22.893 0 0 0 3.99-.8 10.682 10.682 0 0 1-2.142-1.554 8.913 8.913 0 0 1-1.176.21c-.252.042-.42.084-.5.084v-.922a5.006 5.006 0 0 0 2.982-2.142h2.058a.879.879 0 0 1-.168.252.768.768 0 0 1-.252.336h5.754v1.3a10.709 10.709 0 0 1-2.9 2.394 24.789 24.789 0 0 0 3.906.756v1.094zm-11.339 5.544c3.444-.63 5.292-1.89 5.544-3.738h2.772v1.6c.042.462-.21.714-.714.714h-1.008v1.176h1.89c1.218.084 1.806-.546 1.764-1.806v-2.94h-4.578v-.97h-1.932v.966h-3.444v1.26h3.234c-.252 1.134-1.47 2.016-3.528 2.562v1.176zm7.937-9.785h-4.536a3.433 3.433 0 0 1-.84.5h1.008a23.3 23.3 0 0 0 2.016 1.218 12.447 12.447 0 0 0 2.352-1.722zm10.668 9.741v-1.26a3.414 3.414 0 0 0 .756-2.562v-7.306h3.276a7.082 7.082 0 0 0 2.436-.42v1.3a6.339 6.339 0 0 1-2.142.336h-1.89v1.974h4.158v1.218h-1.26v6.468h-1.718V37.12h-1.18v2.394a3.938 3.938 0 0 1-2.436 4.284zm-5.166 0a3.866 3.866 0 0 0 2.436-3.78h1.218q1.575.063 1.512-1.638v-3.15h-2.73v-1.342h.924a7.949 7.949 0 0 0 2.142-.294v-1.3a8.247 8.247 0 0 1-2.436.42h-2.31v7.307a3.725 3.725 0 0 1-.714 2.562v1.215zm3.57-7.307v1.764c.042.42-.168.63-.546.588h-.588v-2.393h1.134z"/><path class="b" d="M4376.46 6a21.762 21.762 0 0 1 14.363 5.376l-12.935 5.165 2.9 2.142a29.879 29.879 0 0 1-2.268 7.223s-8.987-4.158-15.5-.8a16.193 16.193 0 0 1 11.717 5.754s-7.558 9.284-17.469 4.58c0 0-3.99-3.444-1.26-7.979 0 0 5.334-7.727 19.277-4.956 0-.005-9.285-5.838-20.285 1.095A21.863 21.863 0 0 1 4376.46 6zm15.5 36.075s-2.86-7.265-6.638-10.457a25.1 25.1 0 0 1-6.422 6.468 20 20 0 0 1 1.05 4.032h12.007zm.5-29.1c-11.044 33.006-32.588 29.016-32.672 28.974a21.842 21.842 0 1 0 32.673-28.977z"/><path class="a" d="M4421.272 29.224h-2.982V14.147h2.646v11.171l7.475-11.171h2.979v15.077h-2.646V17.847zM4434.206 29.224V14.147h2.52v6.09h7.391v-6.09h2.52v15.077h-2.52v-6.8h-7.391v6.8zM4455.627 15.785c-2.772.21-4.242 2.1-4.494 5.628.168 3.906 1.68 5.964 4.62 6.09 2.982-.084 4.536-2.058 4.62-5.964-.126-3.864-1.68-5.754-4.746-5.754zm.123-2.226c4.662.168 7.1 2.814 7.265 7.937-.21 5.124-2.6 7.769-7.14 7.937-4.662-.168-7.139-2.856-7.349-8.063.169-4.871 2.601-7.475 7.224-7.811zM4412.788 23.68l2.394.336a5.976 5.976 0 0 1-2.015 3.822 5.883 5.883 0 0 1-3.948 1.386 6.144 6.144 0 0 1-4.746-1.932 7.886 7.886 0 0 1-1.806-5.5 10.218 10.218 0 0 1 .756-4.074 5.283 5.283 0 0 1 2.352-2.6 6.849 6.849 0 0 1 3.4-.882 5.93 5.93 0 0 1 3.822 1.176 5.189 5.189 0 0 1 1.89 3.36l-2.352.378a3.843 3.843 0 0 0-1.218-2.184 3 3 0 0 0-2.058-.714 3.739 3.739 0 0 0-2.982 1.3 6.305 6.305 0 0 0-1.134 4.158 6.62 6.62 0 0 0 1.092 4.2 3.628 3.628 0 0 0 2.9 1.3 3.37 3.37 0 0 0 2.394-.882 3.952 3.952 0 0 0 1.259-2.648zM4479.521 23.847l2.436.336a6.338 6.338 0 0 1-2.058 3.948 5.959 5.959 0 0 1-4.074 1.428 6.39 6.39 0 0 1-4.872-1.974 8.009 8.009 0 0 1-1.848-5.67 10.129 10.129 0 0 1 .8-4.2 5.769 5.769 0 0 1 2.394-2.688 7.326 7.326 0 0 1 3.528-.882 6.318 6.318 0 0 1 3.948 1.218 5.677 5.677 0 0 1 1.974 3.444l-2.436.378a4.073 4.073 0 0 0-1.218-2.226 3.179 3.179 0 0 0-2.142-.756 3.946 3.946 0 0 0-3.067 1.344 6.368 6.368 0 0 0-1.176 4.284 6.749 6.749 0 0 0 1.134 4.326 3.773 3.773 0 0 0 2.982 1.344 3.655 3.655 0 0 0 2.478-.882 4.723 4.723 0 0 0 1.217-2.772zM4483.805 29.224V14.231h11.591v1.806h-8.735v4.62h8.144v1.806h-8.147v5.04h8.735v1.722zM4497.244 29.224V14.231h6.552c3.528 0 5.292 1.6 5.292 4.746.084 3.318-1.68 4.914-5.376 4.83h-3.612v5.418zm2.856-13.187v5.838h3.066c2.1.084 3.108-.882 2.982-2.94.042-2.016-.966-2.982-2.982-2.94h-3.066zM4510.851 29.224V14.231h7.182c3.192 0 4.83 1.218 4.83 3.7a3.279 3.279 0 0 1-2.52 3.486c2.058.5 3.108 1.68 3.15 3.57.126 2.94-1.68 4.326-5.5 4.242zm6.678-6.636h-3.822v4.872h3.99c1.932.042 2.9-.756 2.856-2.352-.042-1.68-1.008-2.52-3.024-2.52zm-3.822-6.552v4.41h3.612c1.722 0 2.562-.756 2.562-2.226.042-1.428-.84-2.142-2.73-2.142h-3.444zM4528.196 29.224h-2.982V14.147h2.646v11.171l7.475-11.171h2.979v15.077h-2.646V17.847zM4550.412 23.847l2.436.336a6.338 6.338 0 0 1-2.058 3.948 5.959 5.959 0 0 1-4.074 1.428 6.39 6.39 0 0 1-4.872-1.974 8.009 8.009 0 0 1-1.848-5.67 10.129 10.129 0 0 1 .8-4.2 5.769 5.769 0 0 1 2.394-2.688 7.326 7.326 0 0 1 3.528-.882 6.318 6.318 0 0 1 3.948 1.218 5.677 5.677 0 0 1 1.974 3.444l-2.436.378a4.073 4.073 0 0 0-1.218-2.226 3.179 3.179 0 0 0-2.142-.756 3.946 3.946 0 0 0-3.067 1.344 6.368 6.368 0 0 0-1.176 4.284 6.749 6.749 0 0 0 1.134 4.326 3.773 3.773 0 0 0 2.982 1.344 3.655 3.655 0 0 0 2.478-.882 4.723 4.723 0 0 0 1.217-2.772z"/></svg>