<svg xmlns="http://www.w3.org/2000/svg" viewBox="4467.812 1146.15 49.3 60.3"><defs><style>.a{stroke:#fff;stroke-width:.3px;fill:url(#a)}</style><linearGradient id="a" x1=".5" x2=".5" y2="1" gradientUnits="objectBoundingBox"><stop offset="0" stop-color="#009fe3"/><stop offset="1" stop-color="#312783"/></linearGradient></defs><path class="a" d="M4477.962 1163.3h13a1 1 0 0 0 0-2h-13a1 1 0 0 0 0 2zM4477.962 1194.3h13a1 1 0 0 0 0-2h-13a1 1 0 0 0 0 2zM4477.962 1169.3h29a1 1 0 1 0 0-2h-29a1 1 0 0 0 0 2zM4477.962 1181.3h29a1 1 0 1 0 0-2h-29a1 1 0 1 0 0 2zM4477.962 1188.3h29a1 1 0 1 0 0-2h-29a1 1 0 0 0 0 2zM4477.962 1175.3h14a1 1 0 1 0 0-2h-14a1 1 0 0 0 0 2zM4506.962 1173.3h-7a1 1 0 1 0 0 2h7a1 1 0 1 0 0-2zM4495.252 1173.59a.986.986 0 0 0-.29.71 1.047 1.047 0 0 0 .29.71.99.99 0 0 0 .71.29.99.99 0 0 0 1-1 .991.991 0 0 0-.29-.71 1.037 1.037 0 0 0-1.42 0z"/><path class="a" d="M4503.962 1148.3h-6v-1a1 1 0 0 0-1-1h-9a1 1 0 0 0-1 1v1h-19v58h49v-58zm-8 0v3h-7v-3zm-9 2v3h11v-3h5v4h-21v-4zm-7 5v1h25v-3h7v48h-39v-48h7zm35 49h-45v-54h10v1h-9v52h43v-52h-9v-1h10z"/></svg>