<svg xmlns="http://www.w3.org/2000/svg" viewBox="5084 1410 45.841 55.905"><defs><style>.a{fill:url(#a)}</style><linearGradient id="a" x1=".878" y1=".063" x2="0" y2="1.138" gradientUnits="objectBoundingBox"><stop offset="0" stop-color="#009fe3"/><stop offset="1" stop-color="#312783"/></linearGradient></defs><path class="a" d="M5087.274 1465.902a10.75 10.75 0 0 1-1.5-.717 3.89 3.89 0 0 1-1.766-3.383q-.013-12.084 0-24.168c0-7.783.022-15.567-.009-23.35a4.22 4.22 0 0 1 4.292-4.284q18.631.07 37.262 0a4.228 4.228 0 0 1 4.288 4.284q-.032 23.677-.008 47.353a4.081 4.081 0 0 1-3.1 4.158.793.793 0 0 0-.174.109zm40.179-27.927v-23.793a1.656 1.656 0 0 0-1.783-1.816c-.218-.008-.437 0-.655 0h-36.675a1.692 1.692 0 0 0-1.871 1.174 3.492 3.492 0 0 0-.083.969q0 23.518-.02 47.04a1.871 1.871 0 0 0 2 2.02q16.206-.034 32.415-.012c1.619 0 3.238.009 4.857-.008a1.656 1.656 0 0 0 1.763-1.239 4.459 4.459 0 0 0 .053-.977l-.001-23.358z"/><path class="a" d="M5103.182 1446.916c-2.255 0-4.509-.005-6.767.007a1.2 1.2 0 0 0-1.26 1.168 1.238 1.238 0 0 0 1.23 1.207c.109.007.218 0 .327 0 .002-.001 11.179-2.387 6.47-2.382zm3.74 7.752h-2.4c-2.654 0-5.309.005-7.967 0a1.258 1.258 0 0 0-1.289.725c-.384.851.25 1.656 1.31 1.656q7.094.005 14.181 0h6.548a1.244 1.244 0 0 0 1.273-.753c.357-.838-.272-1.629-1.288-1.629h-10.365zM5119.725 1428.812a12.827 12.827 0 1 1-12.738-12.79 12.748 12.748 0 0 1 12.738 12.79zm-16.667 1.207c.124 1.022.206 2.013.373 2.988a12.059 12.059 0 0 0 1.879 5.109c1.09 1.526 2.2 1.538 3.2-.015a14.094 14.094 0 0 0 1.386-2.992 18.125 18.125 0 0 0 .836-5.09zm.036-2.445h7.651a17.987 17.987 0 0 0-1.562-6.941 7.631 7.631 0 0 0-1.282-1.8 1.29 1.29 0 0 0-1.981 0 5.2 5.2 0 0 0-.885 1.091 17.021 17.021 0 0 0-1.942 7.653zm10.013 2.437a20.905 20.905 0 0 1-1.922 8.275 10.141 10.141 0 0 0 6.054-8.275zm-16.532.007a10.127 10.127 0 0 0 6.067 8.24 20.776 20.776 0 0 1-1.912-8.24zm4.165-2.434a20.96 20.96 0 0 1 1.965-8.357 10.657 10.657 0 0 0-6.18 8.357zm16.51 0a10.046 10.046 0 0 0-6.048-8.211 20.747 20.747 0 0 1 1.9 8.211z"/><path class="a" d="M5106.916 1449.298h-10.2c-.109 0-.218.007-.327 0a1.238 1.238 0 0 1-1.23-1.207 1.2 1.2 0 0 1 1.26-1.168c2.254-.012 4.509-.007 6.767-.007h14.123c1.061 0 1.674.893 1.207 1.746a1.309 1.309 0 0 1-1.291.636q-5.155-.006-10.309 0zM5106.923 1454.668h10.363c1.016 0 1.645.791 1.288 1.629a1.248 1.248 0 0 1-1.273.753q-3.274-.007-6.549 0h-14.18c-1.054 0-1.688-.8-1.31-1.656a1.258 1.258 0 0 1 1.289-.725c2.654.008 5.309 0 7.967 0z"/></svg>