<svg xmlns="http://www.w3.org/2000/svg" viewBox="5804 315 50 50"><defs><style>.a,.b{fill-rule:evenodd}.a{fill:rgba(255,255,255,0);stroke:#fff;stroke-width:2px;opacity:.502}.b{fill:#fff}</style></defs><path class="a" d="M5829 316a24 24 0 1 1-24 24 24 24 0 0 1 24-24z"/><path class="b" d="M5841.158 340.69l-8.48 8.544a1.013 1.013 0 0 1-1.433-.076 1.026 1.026 0 0 1-.076-1.44l6.7-6.752-20.921.042a1.013 1.013 0 0 1-.96-1.066 1.025 1.025 0 0 1 .965-1.072l21-.043-6.556-6.6a1.028 1.028 0 0 1-.075-1.441 1.014 1.014 0 0 1 1.433.076l8.33 8.387a1.026 1.026 0 0 1 .073 1.441z"/></svg>