<svg xmlns="http://www.w3.org/2000/svg" viewBox="5804 315 50 50"><defs><style>.cls-1{fill:rgba(255,255,255,0);stroke-width:2px;opacity:.502}.cls-1,.cls-2{stroke:#000;fill-rule:evenodd}</style></defs><g id="Group_128" data-name="Group 128" transform="translate(5800 311)"><path id="Path_3" data-name="Path 3" class="cls-1" d="M29 5A24 24 0 1 1 5 29 24 24 0 0 1 29 5z"/><path id="Path_4" data-name="Path 4" class="cls-2" d="M41.158 29.69l-8.48 8.544a1.013 1.013 0 0 1-1.433-.076 1.026 1.026 0 0 1-.076-1.44l6.7-6.752-20.921.042a1.013 1.013 0 0 1-.96-1.066 1.025 1.025 0 0 1 .965-1.072l21-.043-6.556-6.6a1.028 1.028 0 0 1-.075-1.441 1.014 1.014 0 0 1 1.433.076l8.33 8.387a1.026 1.026 0 0 1 .073 1.441z"/></g></svg>