<svg xmlns="http://www.w3.org/2000/svg" viewBox="4463 1408 57.957 59.755"><defs><style>.a{fill:url(#a)}</style><linearGradient id="a" x1=".942" x2=".052" y2="1" gradientUnits="objectBoundingBox"><stop offset="0" stop-color="#009fe3"/><stop offset="1" stop-color="#312783"/></linearGradient></defs><g transform="translate(4455.3 1408)"><circle class="a" cx="1.167" cy="1.167" r="1.167" transform="translate(57.177 38.292)"/><circle class="a" cx="1.167" cy="1.167" r="1.167" transform="translate(12.749 38.292)"/><path class="a" d="M64.49 57.42H54.468l-.061-28.684a1.167 1.167 0 0 0-1.167-1.165 1.167 1.167 0 0 0-1.165 1.17l.061 28.679h-3.39l-.03-12.762a1.167 1.167 0 0 0-1.167-1.165 1.167 1.167 0 0 0-1.165 1.17l.03 12.756h-2.84V41.972a6.4 6.4 0 0 0 5.9-6.3V24.357a12.67 12.67 0 0 0-1.112-5.19 9.663 9.663 0 0 1 6.1 2.686 9.048 9.048 0 0 1 2.809 6.532l.021 6.643a1.167 1.167 0 0 0 1.167 1.164 1.167 1.167 0 0 0 1.164-1.171l-.021-6.641a11.363 11.363 0 0 0-3.522-8.205 11.931 11.931 0 0 0-4.5-2.736A6.172 6.172 0 0 0 47.329 6.79h-.013a6.2 6.2 0 0 0-2.848.7 1.167 1.167 0 1 0 1.083 2.068 3.8 3.8 0 0 1 1.77-.435 3.842 3.842 0 1 1 .016 7.683 1.163 1.163 0 0 0-.148.011l-.189.009a13.284 13.284 0 0 0-6.75-4.832 6.847 6.847 0 1 0-8.808.179 13.271 13.271 0 0 0-6.22 4.646 12.792 12.792 0 0 0-.553-.013h-.325a3.842 3.842 0 1 1 1.832-7.219 1.167 1.167 0 0 0 1.115-2.051 6.174 6.174 0 0 0-7 10.081A11.626 11.626 0 0 0 12.749 28.4v6.62a1.167 1.167 0 1 0 2.335 0V28.4a9.407 9.407 0 0 1 8.77-9.226 12.67 12.67 0 0 0-1.107 5.179v11.315a6.409 6.409 0 0 0 6.1 6.319V57.42h-3.18V44.661a1.167 1.167 0 1 0-2.335 0V57.42h-2.871V28.751a1.167 1.167 0 0 0-2.335 0V57.42H8.867a1.167 1.167 0 1 0 0 2.335H64.49a1.167 1.167 0 1 0 0-2.335zM31.229 6.848a4.513 4.513 0 1 1 4.513 4.513 4.518 4.518 0 0 1-4.513-4.513zm11.178 16.735a1.167 1.167 0 0 0-1.167 1.167v32.67h-4.158V41.18a1.167 1.167 0 1 0-2.335 0v16.24H31.18V24.75a1.167 1.167 0 1 0-2.335 0v14.9a4.067 4.067 0 0 1-3.764-3.978V24.357a10.367 10.367 0 0 1 1.7-5.686 11.238 11.238 0 0 1 18.67.013 10.368 10.368 0 0 1 1.691 5.674v11.31a4.057 4.057 0 0 1-3.567 3.956V24.75a1.167 1.167 0 0 0-1.168-1.167z"/></g></svg>