<svg xmlns="http://www.w3.org/2000/svg" viewBox="5368 1152 82.753 47.125"><defs><style>.a{fill:url(#a)}</style><linearGradient id="a" x1="1.709" x2="0" y2="1.524" gradientUnits="objectBoundingBox"><stop offset="0" stop-color="#009fe3"/><stop offset="1" stop-color="#312783"/></linearGradient></defs><path class="a" d="M5380.88 1181.344a1.374 1.374 0 0 0 1.8-.743l1.822-4.393h6.863l1.877 4.405a1.375 1.375 0 1 0 2.53-1.078l-2.228-5.229-.008-.018-4.4-10.332a1.375 1.375 0 0 0-1.265-.836h-.007a1.376 1.376 0 0 0-1.264.848l-4.285 10.324v.012l-2.175 5.242a1.376 1.376 0 0 0 .74 1.798zm7.006-13.3l2.307 5.414h-4.553z"/><path class="a" d="M5387.949 1152a1.375 1.375 0 0 0 .007 2.75h.007a17.141 17.141 0 0 1 12.408 5.1 16.585 16.585 0 0 1 4.791 12.077 17.451 17.451 0 0 1-7.2 14.008 1.361 1.361 0 0 0-.137.112l-.195.134-.16.109-12.952 8.854v-5.258a1.375 1.375 0 0 0-1.019-1.328 17.177 17.177 0 0 1-4.472-31.287 1.375 1.375 0 1 0-1.429-2.35 19.927 19.927 0 0 0 4.17 35.992v6.838a1.375 1.375 0 0 0 2.151 1.135l15.087-10.314.184-.125.374-.256a1.4 1.4 0 0 0 .193-.16 20.185 20.185 0 0 0 8.156-16.045 19.313 19.313 0 0 0-5.581-14.063 19.877 19.877 0 0 0-14.383-5.923zM5430.795 1152a19.943 19.943 0 0 0-11.8 36.03 1.366 1.366 0 0 0 .194.16l.367.251.177.12 15.1 10.323a1.375 1.375 0 0 0 2.151-1.135v-7.864a1.375 1.375 0 0 0-2.75 0v5.258l-12.962-8.861-.154-.1-.189-.129a1.4 1.4 0 0 0-.137-.112 17.2 17.2 0 1 1 27.21-13.98 17 17 0 0 1-5.44 12.535 1.375 1.375 0 0 0 1.879 2.008 19.943 19.943 0 0 0-13.645-34.5z"/><path class="a" d="M5421.478 1178.038a1.375 1.375 0 1 0 0 2.75h11.683a1.375 1.375 0 1 0 0-2.75h-4.466v-1.246h4.466a1.375 1.375 0 1 0 0-2.75h-4.466v-2.784h2.3l.443.886a1.375 1.375 0 0 0 2.46-1.23l-1.834-3.667a1.375 1.375 0 0 0-2.46 1.23l.015.03h-5.379l2.074-3.4h7.158a1.375 1.375 0 0 0 0-2.75h-11.532a1.375 1.375 0 0 0 0 2.75h1.149l-2.476 4.057a1.375 1.375 0 0 0 1.174 2.092h4.153v2.784h-4.466a1.375 1.375 0 0 0 0 2.75h4.466v1.246h-4.467zM5436.696 1177.867a1.375 1.375 0 0 0 1.375-1.375v-11.068a1.375 1.375 0 0 0-2.75 0v11.068a1.375 1.375 0 0 0 1.375 1.375z"/><path class="a" d="M5435.413 1184.639h.158a6.725 6.725 0 0 0 6.718-6.718v-14.093a1.375 1.375 0 1 0-2.75 0v14.093a3.972 3.972 0 0 1-3.964 3.969h-.158a1.375 1.375 0 0 0 0 2.75z"/></svg>